<?xml version="1.0" encoding="UTF-8"?>
<svg xmlns="http://www.w3.org/2000/svg" xmlns:xlink="http://www.w3.org/1999/xlink" width="375pt" height="374.999991pt" viewBox="0 0 375 374.999991" version="1.2">
<defs>
<clipPath id="clip1">
  <path d="M 56.535156 120 L 191 120 L 191 191 L 56.535156 191 Z M 56.535156 120 "/>
</clipPath>
<clipPath id="clip2">
  <path d="M 120 183 L 192 183 L 192 318.285156 L 120 318.285156 Z M 120 183 "/>
</clipPath>
<clipPath id="clip3">
  <path d="M 183 183 L 318.285156 183 L 318.285156 255 L 183 255 Z M 183 183 "/>
</clipPath>
<clipPath id="clip4">
  <path d="M 183 56.535156 L 255 56.535156 L 255 191 L 183 191 Z M 183 56.535156 "/>
</clipPath>
</defs>
<g id="surface1">
<g clip-path="url(#clip1)" clip-rule="nonzero">
<path style=" stroke:none;fill-rule:nonzero;fill:rgb(91.758728%,69.799805%,73.329163%);fill-opacity:1;" d="M 68.757812 183.832031 L 154.996094 183.832031 L 176.652344 176.652344 L 183.832031 155.042969 L 183.832031 127.339844 L 125.25 127.339844 Z M 155.597656 190.988281 L 60.113281 190.988281 C 58.140625 190.988281 56.535156 189.386719 56.535156 187.410156 C 56.535156 186.457031 56.90625 185.550781 57.582031 184.878906 L 121.230469 121.230469 C 121.902344 120.554688 122.808594 120.183594 123.761719 120.183594 L 187.410156 120.183594 C 189.386719 120.183594 190.988281 121.789062 190.988281 123.761719 L 190.988281 155.597656 C 190.988281 155.96875 190.945312 156.367188 190.804688 156.714844 L 182.855469 180.625 C 182.507812 181.695312 181.648438 182.53125 180.578125 182.878906 L 156.691406 190.851562 C 156.320312 190.945312 155.96875 190.988281 155.597656 190.988281 "/>
</g>
<g clip-path="url(#clip2)" clip-rule="nonzero">
<path style=" stroke:none;fill-rule:nonzero;fill:rgb(91.758728%,69.799805%,73.329163%);fill-opacity:1;" d="M 127.339844 249.570312 L 183.832031 306.039062 L 183.832031 219.804688 L 176.652344 198.171875 L 155.042969 190.988281 L 127.339844 190.988281 Z M 187.410156 318.285156 C 186.457031 318.285156 185.550781 317.914062 184.878906 317.242188 L 121.230469 253.59375 C 120.554688 252.917969 120.183594 252.011719 120.183594 251.058594 L 120.183594 187.410156 C 120.183594 185.4375 121.789062 183.832031 123.761719 183.832031 L 155.597656 183.832031 C 155.96875 183.832031 156.367188 183.878906 156.714844 183.996094 L 180.625 191.964844 C 181.695312 192.3125 182.53125 193.175781 182.878906 194.242188 L 190.851562 218.132812 C 190.964844 218.503906 191.035156 218.875 191.035156 219.269531 L 191.035156 314.683594 C 191.035156 316.148438 190.152344 317.449219 188.828125 318.007812 C 188.363281 318.191406 187.898438 318.308594 187.410156 318.285156 "/>
</g>
<g clip-path="url(#clip3)" clip-rule="nonzero">
<path style=" stroke:none;fill-rule:nonzero;fill:rgb(91.758728%,69.799805%,73.329163%);fill-opacity:1;" d="M 190.988281 247.457031 L 249.550781 247.457031 L 306.039062 190.988281 L 219.804688 190.988281 L 198.171875 198.171875 L 190.988281 219.78125 Z M 251.058594 254.636719 L 187.410156 254.636719 C 185.4375 254.636719 183.832031 253.035156 183.832031 251.058594 L 183.832031 219.222656 C 183.832031 218.851562 183.878906 218.457031 183.996094 218.109375 L 191.964844 194.195312 C 192.3125 193.128906 193.152344 192.292969 194.242188 191.941406 L 218.132812 183.972656 C 218.503906 183.855469 218.875 183.785156 219.269531 183.785156 L 314.707031 183.785156 C 316.683594 183.785156 318.285156 185.390625 318.285156 187.363281 C 318.285156 188.316406 317.890625 189.222656 317.242188 189.898438 L 253.59375 253.546875 C 252.917969 254.242188 252.011719 254.613281 251.058594 254.636719 "/>
</g>
<g clip-path="url(#clip4)" clip-rule="nonzero">
<path style=" stroke:none;fill-rule:nonzero;fill:rgb(91.758728%,69.799805%,73.329163%);fill-opacity:1;" d="M 219.804688 183.832031 L 247.457031 183.832031 L 247.457031 125.25 L 190.988281 68.757812 L 190.988281 154.996094 L 198.171875 176.652344 Z M 251.058594 190.988281 L 219.246094 190.988281 C 218.851562 190.988281 218.457031 190.945312 218.109375 190.828125 L 194.195312 182.855469 C 193.128906 182.507812 192.292969 181.648438 191.917969 180.578125 L 183.972656 156.691406 C 183.855469 156.320312 183.785156 155.949219 183.785156 155.550781 L 183.785156 60.113281 C 183.785156 58.140625 185.390625 56.535156 187.363281 56.535156 C 188.316406 56.535156 189.222656 56.90625 189.898438 57.582031 L 253.546875 121.230469 C 254.21875 121.902344 254.589844 122.808594 254.589844 123.761719 L 254.589844 187.410156 C 254.589844 189.386719 253.011719 190.964844 251.058594 190.988281 "/>
</g>
</g>
</svg>
